G04 Layer_Physical_Order=2*
G04 Layer_Color=11436288*
%FSLAX44Y44*%
%MOMM*%
G71*
G01*
G75*
%ADD10O,1.6000X3.1240*%
%ADD11R,1.6000X3.1240*%
%ADD12C,1.0000*%
%ADD13C,3.0000*%
%ADD14C,1.5240*%
%ADD15O,1.5240X2.0320*%
%ADD16R,1.8000X1.8000*%
%ADD17C,1.8000*%
%ADD18R,1.8000X1.8000*%
%ADD19C,1.6000*%
%ADD20R,1.6000X1.6000*%
%ADD21C,1.7000*%
%ADD22R,1.7000X1.7000*%
%ADD23C,1.4000*%
%ADD24C,2.6000*%
G36*
X1172464Y953281D02*
X1172464Y281432D01*
X360562Y281178D01*
X359664Y282076D01*
Y524107D01*
X359664D01*
X359664Y524510D01*
X359771Y524617D01*
X359918Y524764D01*
X359410Y525272D01*
X359197Y525272D01*
X359034D01*
X359034D01*
X358876Y525272D01*
X358709Y525272D01*
X358709D01*
X59944D01*
Y763524D01*
X61109Y764793D01*
X372618Y764540D01*
X373126Y953770D01*
X1171566Y954179D01*
X1172464Y953281D01*
D02*
G37*
%LPC*%
G36*
X744982Y481418D02*
X742330Y481068D01*
X739858Y480045D01*
X737736Y478416D01*
X736107Y476294D01*
X735083Y473822D01*
X734734Y471170D01*
X735083Y468518D01*
X736107Y466046D01*
X737377Y464392D01*
Y412110D01*
X733188D01*
Y389030D01*
X756268D01*
Y412110D01*
X752587D01*
Y464392D01*
X753857Y466046D01*
X754881Y468518D01*
X755230Y471170D01*
X754881Y473822D01*
X753857Y476294D01*
X752228Y478416D01*
X750106Y480045D01*
X747634Y481068D01*
X744982Y481418D01*
D02*
G37*
G36*
X688848Y660488D02*
X686196Y660138D01*
X683724Y659115D01*
X681602Y657486D01*
X679973Y655364D01*
X678950Y652892D01*
X678600Y650240D01*
Y645160D01*
X678950Y642508D01*
X679973Y640036D01*
X681243Y638382D01*
Y554911D01*
X679973Y553256D01*
X678950Y550784D01*
X678600Y548132D01*
Y543052D01*
X678950Y540400D01*
X679973Y537928D01*
X681243Y536273D01*
Y512064D01*
X681502Y510096D01*
X681725Y509558D01*
X682262Y508261D01*
X683470Y506686D01*
X711723Y478434D01*
Y409280D01*
X711098Y408800D01*
X709248Y406390D01*
X708085Y403582D01*
X707688Y400570D01*
X708085Y397557D01*
X709248Y394750D01*
X711098Y392340D01*
X713508Y390490D01*
X716316Y389327D01*
X719328Y388930D01*
X722340Y389327D01*
X725148Y390490D01*
X727558Y392340D01*
X729408Y394750D01*
X730571Y397557D01*
X730968Y400570D01*
X730571Y403582D01*
X729408Y406390D01*
X727558Y408800D01*
X726933Y409280D01*
Y481584D01*
X726674Y483552D01*
X726229Y484627D01*
X725914Y485387D01*
X724706Y486962D01*
X696453Y515214D01*
Y536273D01*
X697723Y537928D01*
X698746Y540400D01*
X699096Y543052D01*
Y548132D01*
X698746Y550784D01*
X697723Y553256D01*
X696453Y554911D01*
Y638382D01*
X697723Y640036D01*
X698746Y642508D01*
X699096Y645160D01*
Y650240D01*
X698746Y652892D01*
X697723Y655364D01*
X696094Y657486D01*
X693972Y659115D01*
X691500Y660138D01*
X688848Y660488D01*
D02*
G37*
G36*
X663448D02*
X660796Y660138D01*
X658324Y659115D01*
X656202Y657486D01*
X654573Y655364D01*
X653549Y652892D01*
X653200Y650240D01*
Y645160D01*
X653549Y642508D01*
X654573Y640036D01*
X655843Y638382D01*
Y554911D01*
X654573Y553256D01*
X653549Y550784D01*
X653200Y548132D01*
Y543052D01*
X653549Y540400D01*
X654573Y537928D01*
X655843Y536273D01*
Y507238D01*
X656102Y505270D01*
X656325Y504732D01*
X656862Y503436D01*
X658070Y501860D01*
X686323Y473608D01*
Y409280D01*
X685698Y408800D01*
X683848Y406390D01*
X682685Y403582D01*
X682288Y400570D01*
X682685Y397557D01*
X683848Y394750D01*
X685698Y392340D01*
X688108Y390490D01*
X690916Y389327D01*
X693928Y388930D01*
X696941Y389327D01*
X699748Y390490D01*
X702158Y392340D01*
X704008Y394750D01*
X705171Y397557D01*
X705567Y400570D01*
X705171Y403582D01*
X704008Y406390D01*
X702158Y408800D01*
X701533Y409280D01*
Y476758D01*
X701274Y478726D01*
X700829Y479801D01*
X700514Y480560D01*
X699306Y482136D01*
X671053Y510388D01*
Y536273D01*
X672323Y537928D01*
X673346Y540400D01*
X673696Y543052D01*
Y548132D01*
X673346Y550784D01*
X672323Y553256D01*
X671053Y554911D01*
Y638382D01*
X672323Y640036D01*
X673346Y642508D01*
X673696Y645160D01*
Y650240D01*
X673346Y652892D01*
X672323Y655364D01*
X670694Y657486D01*
X668572Y659115D01*
X666100Y660138D01*
X663448Y660488D01*
D02*
G37*
G36*
X490982Y761709D02*
X488231Y761347D01*
X485667Y760285D01*
X483465Y758595D01*
X481775Y756394D01*
X480713Y753829D01*
X480351Y751078D01*
Y735838D01*
X480713Y733086D01*
X481775Y730523D01*
X483377Y728435D01*
Y685038D01*
X483636Y683070D01*
X483859Y682532D01*
X484396Y681236D01*
X485604Y679660D01*
X526049Y639216D01*
Y484226D01*
X496018Y454196D01*
X494810Y452621D01*
X494273Y451324D01*
X494050Y450786D01*
X493791Y448818D01*
Y409534D01*
X493166Y409054D01*
X491316Y406644D01*
X490153Y403837D01*
X489757Y400824D01*
X490153Y397811D01*
X491316Y395004D01*
X493166Y392594D01*
X495576Y390744D01*
X498383Y389581D01*
X501396Y389184D01*
X504408Y389581D01*
X507216Y390744D01*
X509626Y392594D01*
X511476Y395004D01*
X512639Y397811D01*
X513036Y400824D01*
X512639Y403837D01*
X511476Y406644D01*
X509626Y409054D01*
X509001Y409534D01*
Y445668D01*
X539032Y475698D01*
X540240Y477273D01*
X540555Y478033D01*
X541000Y479108D01*
X541259Y481076D01*
Y642366D01*
X541000Y644334D01*
X540777Y644872D01*
X540240Y646169D01*
X539032Y647744D01*
X498587Y688188D01*
Y728435D01*
X500189Y730523D01*
X501251Y733086D01*
X501613Y735838D01*
Y751078D01*
X501251Y753829D01*
X500189Y756394D01*
X498499Y758595D01*
X496297Y760285D01*
X493733Y761347D01*
X490982Y761709D01*
D02*
G37*
G36*
X476504Y507194D02*
X473492Y506797D01*
X470684Y505634D01*
X468274Y503784D01*
X466424Y501374D01*
X465261Y498567D01*
X464864Y495554D01*
X465261Y492542D01*
X466424Y489734D01*
X468274Y487324D01*
X468391Y487234D01*
Y409534D01*
X467766Y409054D01*
X465916Y406644D01*
X464753Y403837D01*
X464356Y400824D01*
X464753Y397811D01*
X465916Y395004D01*
X467766Y392594D01*
X470176Y390744D01*
X472984Y389581D01*
X475996Y389184D01*
X479008Y389581D01*
X481816Y390744D01*
X484226Y392594D01*
X486076Y395004D01*
X487239Y397811D01*
X487635Y400824D01*
X487239Y403837D01*
X486076Y406644D01*
X484226Y409054D01*
X483601Y409534D01*
Y486454D01*
X484734Y487324D01*
X486584Y489734D01*
X487747Y492542D01*
X488144Y495554D01*
X487747Y498567D01*
X486584Y501374D01*
X484734Y503784D01*
X482324Y505634D01*
X479516Y506797D01*
X476504Y507194D01*
D02*
G37*
G36*
X451104Y507192D02*
X448092Y506796D01*
X445284Y505633D01*
X442874Y503783D01*
X441024Y501373D01*
X439861Y498565D01*
X439464Y495553D01*
X439861Y492540D01*
X441024Y489733D01*
X442874Y487323D01*
X443499Y486843D01*
Y409924D01*
X442366Y409054D01*
X440516Y406644D01*
X439353Y403837D01*
X438956Y400824D01*
X439353Y397811D01*
X440516Y395004D01*
X442366Y392594D01*
X444776Y390744D01*
X447584Y389581D01*
X450596Y389184D01*
X453609Y389581D01*
X456416Y390744D01*
X458826Y392594D01*
X460676Y395004D01*
X461839Y397811D01*
X462235Y400824D01*
X461839Y403837D01*
X460676Y406644D01*
X458826Y409054D01*
X458709Y409144D01*
Y486843D01*
X459334Y487323D01*
X461184Y489733D01*
X462347Y492540D01*
X462743Y495553D01*
X462347Y498565D01*
X461184Y501373D01*
X459334Y503783D01*
X456924Y505633D01*
X454117Y506796D01*
X451104Y507192D01*
D02*
G37*
G36*
X552196Y412463D02*
X549184Y412067D01*
X546376Y410904D01*
X543966Y409054D01*
X542116Y406644D01*
X540953Y403837D01*
X540556Y400824D01*
X540953Y397811D01*
X542116Y395004D01*
X543966Y392594D01*
X544591Y392114D01*
Y370942D01*
X531266Y357617D01*
X504650D01*
X504444Y357886D01*
X502138Y359655D01*
X499452Y360768D01*
X496570Y361147D01*
X493688Y360768D01*
X491002Y359655D01*
X488696Y357886D01*
X486927Y355580D01*
X485814Y352894D01*
X485435Y350012D01*
X485814Y347130D01*
X486927Y344444D01*
X488696Y342138D01*
X491002Y340369D01*
X493688Y339256D01*
X496570Y338877D01*
X499452Y339256D01*
X502138Y340369D01*
X504444Y342138D01*
X504650Y342407D01*
X534416D01*
X536384Y342666D01*
X536922Y342889D01*
X538218Y343426D01*
X539794Y344634D01*
X557574Y362414D01*
X558782Y363989D01*
X559162Y364907D01*
X559542Y365824D01*
X559801Y367792D01*
Y392114D01*
X560426Y392594D01*
X562276Y395004D01*
X563439Y397811D01*
X563836Y400824D01*
X563439Y403837D01*
X562276Y406644D01*
X560426Y409054D01*
X558016Y410904D01*
X555209Y412067D01*
X552196Y412463D01*
D02*
G37*
G36*
X424688Y621045D02*
X421936Y620683D01*
X419372Y619621D01*
X417171Y617931D01*
X415481Y615729D01*
X414419Y613166D01*
X414057Y610414D01*
X414419Y607663D01*
X415481Y605098D01*
X417171Y602897D01*
X417845Y602379D01*
Y590468D01*
X417117Y589519D01*
X416156Y587198D01*
X415828Y584708D01*
X416156Y582218D01*
X417117Y579897D01*
X417845Y578948D01*
Y539598D01*
X390354Y512108D01*
X389146Y510532D01*
X388609Y509236D01*
X388386Y508698D01*
X388127Y506730D01*
Y358677D01*
X387096Y357886D01*
X385327Y355580D01*
X384214Y352894D01*
X383835Y350012D01*
X384214Y347130D01*
X385327Y344444D01*
X387096Y342138D01*
X389402Y340369D01*
X392088Y339256D01*
X394970Y338877D01*
X397852Y339256D01*
X400538Y340369D01*
X402844Y342138D01*
X404613Y344444D01*
X405726Y347130D01*
X406105Y350012D01*
X405726Y352894D01*
X404613Y355580D01*
X403337Y357243D01*
Y503580D01*
X430828Y531070D01*
X432036Y532645D01*
X432573Y533942D01*
X432796Y534480D01*
X433055Y536448D01*
Y578948D01*
X433783Y579897D01*
X434744Y582218D01*
X435072Y584708D01*
X434744Y587198D01*
X433783Y589519D01*
X433055Y590468D01*
Y604004D01*
X433895Y605098D01*
X434957Y607663D01*
X435319Y610414D01*
X434957Y613166D01*
X433895Y615729D01*
X432205Y617931D01*
X430004Y619621D01*
X427439Y620683D01*
X424688Y621045D01*
D02*
G37*
G36*
X679124Y902062D02*
X676111Y901665D01*
X673304Y900502D01*
X670894Y898652D01*
X669044Y896242D01*
X667881Y893435D01*
X667484Y890422D01*
X667881Y887410D01*
X669044Y884602D01*
X670894Y882192D01*
X671519Y881712D01*
Y833192D01*
X671778Y831224D01*
X672001Y830686D01*
X672538Y829389D01*
X673746Y827814D01*
X757189Y744372D01*
Y656687D01*
X756173Y655364D01*
X755150Y652892D01*
X754800Y650240D01*
Y645160D01*
X755150Y642508D01*
X756173Y640036D01*
X757189Y638713D01*
Y554580D01*
X756173Y553256D01*
X755150Y550784D01*
X754800Y548132D01*
Y543052D01*
X755150Y540400D01*
X756173Y537928D01*
X757443Y536273D01*
Y523748D01*
X757702Y521780D01*
X757925Y521242D01*
X758462Y519945D01*
X759670Y518370D01*
X789955Y488086D01*
Y376276D01*
X746150Y332471D01*
X480924D01*
X433309Y380086D01*
Y486844D01*
X433934Y487324D01*
X435784Y489734D01*
X436947Y492542D01*
X437344Y495554D01*
X436947Y498567D01*
X435784Y501374D01*
X433934Y503784D01*
X431524Y505634D01*
X428717Y506797D01*
X425704Y507194D01*
X422691Y506797D01*
X419884Y505634D01*
X417474Y503784D01*
X415624Y501374D01*
X414461Y498567D01*
X414064Y495554D01*
X414461Y492542D01*
X415624Y489734D01*
X417474Y487324D01*
X418099Y486844D01*
Y376936D01*
X418358Y374968D01*
X418581Y374430D01*
X419118Y373134D01*
X420326Y371558D01*
X472396Y319488D01*
X473971Y318280D01*
X475268Y317743D01*
X475806Y317520D01*
X477774Y317261D01*
X749300D01*
X751268Y317520D01*
X751806Y317743D01*
X753102Y318280D01*
X754678Y319488D01*
X802938Y367748D01*
X804146Y369324D01*
X804683Y370620D01*
X804906Y371158D01*
X805165Y373126D01*
Y491236D01*
X804906Y493204D01*
X804526Y494121D01*
X804146Y495038D01*
X802938Y496614D01*
X772653Y526898D01*
Y536273D01*
X773923Y537928D01*
X774947Y540400D01*
X775296Y543052D01*
Y548132D01*
X774947Y550784D01*
X773923Y553256D01*
X772399Y555242D01*
Y638050D01*
X773923Y640036D01*
X774947Y642508D01*
X775296Y645160D01*
Y650240D01*
X774947Y652892D01*
X773923Y655364D01*
X772399Y657350D01*
Y747522D01*
X772140Y749490D01*
X771917Y750028D01*
X771380Y751324D01*
X770172Y752900D01*
X686729Y836342D01*
Y881712D01*
X687354Y882192D01*
X689204Y884602D01*
X690367Y887410D01*
X690763Y890422D01*
X690367Y893435D01*
X689204Y896242D01*
X687354Y898652D01*
X684944Y900502D01*
X682137Y901665D01*
X679124Y902062D01*
D02*
G37*
G36*
X612648Y558380D02*
X609996Y558031D01*
X607524Y557007D01*
X605402Y555378D01*
X603773Y553256D01*
X602749Y550784D01*
X602400Y548132D01*
Y543052D01*
X602749Y540400D01*
X603773Y537928D01*
X605043Y536273D01*
Y484378D01*
X605302Y482410D01*
X605525Y481872D01*
X606062Y480575D01*
X607270Y479000D01*
X635523Y450748D01*
Y409280D01*
X634898Y408800D01*
X633048Y406390D01*
X631885Y403582D01*
X631488Y400570D01*
X631885Y397557D01*
X633048Y394750D01*
X634898Y392340D01*
X637308Y390490D01*
X640116Y389327D01*
X643128Y388930D01*
X646141Y389327D01*
X648948Y390490D01*
X651358Y392340D01*
X653208Y394750D01*
X654371Y397557D01*
X654768Y400570D01*
X654371Y403582D01*
X653208Y406390D01*
X651358Y408800D01*
X650733Y409280D01*
Y453898D01*
X650474Y455866D01*
X650029Y456941D01*
X649714Y457701D01*
X648506Y459276D01*
X620253Y487528D01*
Y536273D01*
X621523Y537928D01*
X622547Y540400D01*
X622896Y543052D01*
Y548132D01*
X622547Y550784D01*
X621523Y553256D01*
X619894Y555378D01*
X617772Y557007D01*
X615300Y558031D01*
X612648Y558380D01*
D02*
G37*
G36*
Y660488D02*
X609996Y660138D01*
X607524Y659115D01*
X605402Y657486D01*
X603773Y655364D01*
X602749Y652892D01*
X602400Y650240D01*
Y645160D01*
X602749Y642508D01*
X603773Y640036D01*
X605043Y638382D01*
Y614528D01*
X584918Y594404D01*
X583710Y592828D01*
X583173Y591532D01*
X582950Y590994D01*
X582691Y589026D01*
Y474980D01*
X582950Y473012D01*
X583173Y472474D01*
X583710Y471177D01*
X584918Y469602D01*
X610123Y444398D01*
Y409280D01*
X609498Y408800D01*
X607648Y406390D01*
X606485Y403582D01*
X606088Y400570D01*
X606485Y397557D01*
X607648Y394750D01*
X609498Y392340D01*
X611908Y390490D01*
X614715Y389327D01*
X617728Y388930D01*
X620741Y389327D01*
X623548Y390490D01*
X625958Y392340D01*
X627808Y394750D01*
X628971Y397557D01*
X629367Y400570D01*
X628971Y403582D01*
X627808Y406390D01*
X625958Y408800D01*
X625333Y409280D01*
Y447548D01*
X625074Y449516D01*
X624851Y450054D01*
X624314Y451351D01*
X623106Y452926D01*
X597901Y478130D01*
Y585876D01*
X618026Y606000D01*
X619234Y607575D01*
X619771Y608872D01*
X619994Y609410D01*
X620253Y611378D01*
Y638382D01*
X621523Y640036D01*
X622547Y642508D01*
X622896Y645160D01*
Y650240D01*
X622547Y652892D01*
X621523Y655364D01*
X619894Y657486D01*
X617772Y659115D01*
X615300Y660138D01*
X612648Y660488D01*
D02*
G37*
G36*
X739648D02*
X736996Y660138D01*
X734524Y659115D01*
X732402Y657486D01*
X730773Y655364D01*
X729750Y652892D01*
X729400Y650240D01*
Y645160D01*
X729750Y642508D01*
X730773Y640036D01*
X731789Y638713D01*
Y554580D01*
X730773Y553256D01*
X729750Y550784D01*
X729400Y548132D01*
Y543052D01*
X729750Y540400D01*
X730773Y537928D01*
X732043Y536273D01*
Y511810D01*
X732302Y509842D01*
X732525Y509304D01*
X733062Y508008D01*
X734270Y506432D01*
X766587Y474116D01*
Y384912D01*
X752754Y371079D01*
X683870D01*
X676133Y378816D01*
Y391860D01*
X676758Y392340D01*
X678608Y394750D01*
X679771Y397557D01*
X680168Y400570D01*
X679771Y403582D01*
X678608Y406390D01*
X676758Y408800D01*
X674348Y410650D01*
X671541Y411813D01*
X668528Y412210D01*
X665516Y411813D01*
X662708Y410650D01*
X660298Y408800D01*
X658448Y406390D01*
X657285Y403582D01*
X656889Y400570D01*
X657285Y397557D01*
X658448Y394750D01*
X660298Y392340D01*
X660923Y391860D01*
Y375666D01*
X661182Y373698D01*
X661405Y373160D01*
X661942Y371864D01*
X663150Y370288D01*
X675342Y358096D01*
X676917Y356888D01*
X677992Y356443D01*
X678752Y356128D01*
X680720Y355869D01*
X755904D01*
X757872Y356128D01*
X758410Y356351D01*
X759706Y356888D01*
X761282Y358096D01*
X779570Y376384D01*
X780778Y377960D01*
X781315Y379256D01*
X781538Y379794D01*
X781797Y381762D01*
Y477266D01*
X781538Y479234D01*
X781158Y480151D01*
X780778Y481068D01*
X779570Y482644D01*
X747253Y514960D01*
Y536273D01*
X748523Y537928D01*
X749547Y540400D01*
X749896Y543052D01*
Y548132D01*
X749547Y550784D01*
X748523Y553256D01*
X746999Y555242D01*
Y638050D01*
X748523Y640036D01*
X749547Y642508D01*
X749896Y645160D01*
Y650240D01*
X749547Y652892D01*
X748523Y655364D01*
X746894Y657486D01*
X744772Y659115D01*
X742300Y660138D01*
X739648Y660488D01*
D02*
G37*
G36*
X208405Y725901D02*
X204966Y725563D01*
X201660Y724560D01*
X198613Y722931D01*
X195942Y720739D01*
X190398Y715195D01*
X131442D01*
X128004Y714857D01*
X124698Y713854D01*
X121651Y712225D01*
X118980Y710033D01*
X116788Y707362D01*
X115159Y704315D01*
X114156Y701009D01*
X113818Y697570D01*
X114156Y694132D01*
X115159Y690826D01*
X116788Y687779D01*
X118980Y685108D01*
X121651Y682916D01*
X124698Y681287D01*
X128004Y680284D01*
X131442Y679946D01*
X197698D01*
X201137Y680284D01*
X204443Y681287D01*
X207490Y682916D01*
X210161Y685108D01*
X220867Y695814D01*
X223059Y698485D01*
X224688Y701532D01*
X225691Y704838D01*
X226029Y708277D01*
X225691Y711715D01*
X224688Y715021D01*
X223059Y718068D01*
X220867Y720739D01*
X218196Y722931D01*
X215149Y724560D01*
X211843Y725563D01*
X208405Y725901D01*
D02*
G37*
G36*
X350644Y664941D02*
X131697D01*
X128258Y664603D01*
X124952Y663600D01*
X121905Y661971D01*
X119234Y659779D01*
X117042Y657108D01*
X115413Y654061D01*
X114410Y650755D01*
X114072Y647317D01*
X114410Y643878D01*
X115413Y640572D01*
X117042Y637525D01*
X119234Y634854D01*
X121905Y632662D01*
X124952Y631033D01*
X128258Y630030D01*
X131697Y629692D01*
X350644D01*
X354083Y630030D01*
X357389Y631033D01*
X360436Y632662D01*
X363107Y634854D01*
X365299Y637525D01*
X366928Y640572D01*
X367931Y643878D01*
X368269Y647317D01*
X367931Y650755D01*
X366928Y654061D01*
X365299Y657108D01*
X363107Y659779D01*
X360436Y661971D01*
X357389Y663600D01*
X354083Y664603D01*
X350644Y664941D01*
D02*
G37*
G36*
X516382Y761709D02*
X513630Y761347D01*
X511067Y760285D01*
X508865Y758595D01*
X507175Y756394D01*
X506113Y753829D01*
X505751Y751078D01*
Y735838D01*
X506113Y733086D01*
X507175Y730523D01*
X508777Y728435D01*
Y712724D01*
X509036Y710756D01*
X509259Y710218D01*
X509796Y708922D01*
X511004Y707346D01*
X550661Y667690D01*
X550933Y665622D01*
X551957Y663150D01*
X553227Y661496D01*
Y607842D01*
X552465Y606850D01*
X551441Y604378D01*
X551092Y601726D01*
X551441Y599074D01*
X552465Y596602D01*
X554094Y594480D01*
X556216Y592851D01*
X558688Y591828D01*
X561340Y591478D01*
X563992Y591828D01*
X566464Y592851D01*
X568586Y594480D01*
X570215Y596602D01*
X571239Y599074D01*
X571588Y601726D01*
X571239Y604378D01*
X570215Y606850D01*
X568586Y608972D01*
X568437Y609087D01*
Y661496D01*
X569707Y663150D01*
X570731Y665622D01*
X571080Y668274D01*
X570731Y670926D01*
X569707Y673398D01*
X568078Y675520D01*
X565956Y677149D01*
X563484Y678173D01*
X561416Y678445D01*
X523987Y715874D01*
Y728435D01*
X525589Y730523D01*
X526651Y733086D01*
X527013Y735838D01*
Y751078D01*
X526651Y753829D01*
X525589Y756394D01*
X523899Y758595D01*
X521698Y760285D01*
X519133Y761347D01*
X516382Y761709D01*
D02*
G37*
G36*
X638556Y929625D02*
X563626D01*
X561658Y929366D01*
X561120Y929143D01*
X559823Y928606D01*
X558248Y927398D01*
X434804Y803954D01*
X433596Y802378D01*
X433059Y801082D01*
X432836Y800544D01*
X432577Y798576D01*
Y758481D01*
X430975Y756394D01*
X429913Y753829D01*
X429551Y751078D01*
Y735838D01*
X429913Y733086D01*
X430975Y730523D01*
X432665Y728321D01*
X434037Y727268D01*
X434120Y726001D01*
X424473Y716354D01*
X414148D01*
Y715374D01*
X342127D01*
Y718809D01*
X320047D01*
Y696729D01*
X342127D01*
Y700163D01*
X414148D01*
Y695274D01*
X435228D01*
Y705599D01*
X447846Y718216D01*
X449054Y719791D01*
X449434Y720709D01*
X449814Y721626D01*
X450073Y723594D01*
Y732175D01*
X450451Y733086D01*
X450813Y735838D01*
Y751078D01*
X450451Y753829D01*
X449389Y756394D01*
X447787Y758481D01*
Y795426D01*
X566776Y914415D01*
X635406D01*
X646119Y903702D01*
Y899132D01*
X645494Y898652D01*
X643644Y896242D01*
X642481Y893435D01*
X642084Y890422D01*
X642481Y887410D01*
X643644Y884602D01*
X645494Y882192D01*
X647904Y880342D01*
X650711Y879179D01*
X653724Y878783D01*
X656737Y879179D01*
X659544Y880342D01*
X661954Y882192D01*
X663804Y884602D01*
X664967Y887410D01*
X665363Y890422D01*
X664967Y893435D01*
X663804Y896242D01*
X661954Y898652D01*
X661329Y899132D01*
Y906852D01*
X661070Y908820D01*
X660847Y909358D01*
X660310Y910655D01*
X659102Y912230D01*
X643934Y927398D01*
X642358Y928606D01*
X641062Y929143D01*
X640524Y929366D01*
X638556Y929625D01*
D02*
G37*
G36*
X552322Y761618D02*
X531242D01*
Y725298D01*
X552322D01*
Y761618D01*
D02*
G37*
G36*
X414782Y761709D02*
X412030Y761347D01*
X409467Y760285D01*
X407265Y758595D01*
X405575Y756394D01*
X404513Y753829D01*
X404151Y751078D01*
Y735838D01*
X404513Y733086D01*
X405575Y730523D01*
X407265Y728321D01*
X409467Y726631D01*
X412030Y725569D01*
X414782Y725207D01*
X417533Y725569D01*
X420098Y726631D01*
X422299Y728321D01*
X423989Y730523D01*
X425051Y733086D01*
X425413Y735838D01*
Y751078D01*
X425051Y753829D01*
X423989Y756394D01*
X422299Y758595D01*
X420098Y760285D01*
X417533Y761347D01*
X414782Y761709D01*
D02*
G37*
G36*
X638048Y660488D02*
X635396Y660138D01*
X632924Y659115D01*
X630802Y657486D01*
X629173Y655364D01*
X628149Y652892D01*
X627800Y650240D01*
Y645160D01*
X628149Y642508D01*
X629173Y640036D01*
X630189Y638713D01*
Y554580D01*
X629173Y553256D01*
X628149Y550784D01*
X627800Y548132D01*
Y543052D01*
X628149Y540400D01*
X629173Y537928D01*
X630189Y536604D01*
Y491022D01*
X630448Y489054D01*
X630671Y488516D01*
X631208Y487220D01*
X632416Y485644D01*
X652268Y465792D01*
X653844Y464584D01*
X655140Y464047D01*
X655678Y463824D01*
X657646Y463565D01*
X661496D01*
X663150Y462295D01*
X665622Y461272D01*
X668274Y460922D01*
X670926Y461272D01*
X673398Y462295D01*
X675520Y463924D01*
X677149Y466046D01*
X678173Y468518D01*
X678522Y471170D01*
X678173Y473822D01*
X677149Y476294D01*
X675520Y478416D01*
X673398Y480045D01*
X670926Y481068D01*
X668274Y481418D01*
X665622Y481068D01*
X663150Y480045D01*
X661496Y478775D01*
X660796D01*
X645399Y494172D01*
Y535942D01*
X646923Y537928D01*
X647946Y540400D01*
X648296Y543052D01*
Y548132D01*
X647946Y550784D01*
X646923Y553256D01*
X645399Y555242D01*
Y638050D01*
X646923Y640036D01*
X647946Y642508D01*
X648296Y645160D01*
Y650240D01*
X647946Y652892D01*
X646923Y655364D01*
X645294Y657486D01*
X643172Y659115D01*
X640700Y660138D01*
X638048Y660488D01*
D02*
G37*
G36*
X589136Y412364D02*
X566056D01*
Y389284D01*
X589136D01*
Y412364D01*
D02*
G37*
G36*
X561340Y510374D02*
X558688Y510024D01*
X556216Y509001D01*
X554094Y507372D01*
X552465Y505250D01*
X551441Y502778D01*
X551092Y500126D01*
X551441Y497474D01*
X552465Y495002D01*
X553735Y493348D01*
Y466192D01*
X521418Y433876D01*
X520210Y432300D01*
X519673Y431004D01*
X519450Y430466D01*
X519191Y428498D01*
Y409534D01*
X518566Y409054D01*
X516716Y406644D01*
X515553Y403837D01*
X515156Y400824D01*
X515553Y397811D01*
X516716Y395004D01*
X518566Y392594D01*
X520976Y390744D01*
X523783Y389581D01*
X526796Y389184D01*
X529809Y389581D01*
X532616Y390744D01*
X535026Y392594D01*
X536876Y395004D01*
X538039Y397811D01*
X538436Y400824D01*
X538039Y403837D01*
X536876Y406644D01*
X535026Y409054D01*
X534401Y409534D01*
Y425348D01*
X566718Y457664D01*
X567926Y459240D01*
X568306Y460157D01*
X568686Y461074D01*
X568945Y463042D01*
Y493348D01*
X570215Y495002D01*
X571239Y497474D01*
X571588Y500126D01*
X571239Y502778D01*
X570215Y505250D01*
X568586Y507372D01*
X566464Y509001D01*
X563992Y510024D01*
X561340Y510374D01*
D02*
G37*
G36*
X198461Y615195D02*
X131442D01*
X128004Y614857D01*
X124698Y613854D01*
X121651Y612225D01*
X118980Y610033D01*
X116788Y607362D01*
X115159Y604315D01*
X114156Y601009D01*
X113818Y597570D01*
X114156Y594132D01*
X115159Y590826D01*
X116788Y587779D01*
X118980Y585108D01*
X121651Y582916D01*
X124698Y581287D01*
X128004Y580284D01*
X131442Y579946D01*
X191160D01*
X195942Y575164D01*
X198613Y572972D01*
X201660Y571343D01*
X204966Y570340D01*
X208405Y570002D01*
X211843Y570340D01*
X215149Y571343D01*
X218196Y572972D01*
X220867Y575164D01*
X223059Y577835D01*
X224688Y580882D01*
X225691Y584188D01*
X226029Y587626D01*
X225691Y591065D01*
X224688Y594371D01*
X223059Y597418D01*
X220867Y600089D01*
X210923Y610033D01*
X208252Y612225D01*
X205205Y613854D01*
X201899Y614857D01*
X198461Y615195D01*
D02*
G37*
G36*
X331595Y598762D02*
X328713Y598382D01*
X326027Y597270D01*
X323721Y595500D01*
X321951Y593194D01*
X320839Y590508D01*
X320459Y587626D01*
X320839Y584744D01*
X321951Y582059D01*
X323721Y579753D01*
X326027Y577983D01*
X328713Y576871D01*
X331595Y576491D01*
X334477Y576871D01*
X337162Y577983D01*
X339468Y579753D01*
X339675Y580022D01*
X383821D01*
X396949Y566893D01*
X397106Y565708D01*
X398067Y563387D01*
X399596Y561394D01*
X401589Y559865D01*
X403910Y558904D01*
X406400Y558576D01*
X408890Y558904D01*
X411211Y559865D01*
X413204Y561394D01*
X414733Y563387D01*
X415694Y565708D01*
X416022Y568198D01*
X415694Y570688D01*
X414733Y573009D01*
X413204Y575002D01*
X411211Y576531D01*
X408890Y577492D01*
X407705Y577649D01*
X392349Y593004D01*
X390774Y594213D01*
X389477Y594750D01*
X388940Y594972D01*
X386972Y595232D01*
X339675D01*
X339468Y595500D01*
X337162Y597270D01*
X334477Y598382D01*
X331595Y598762D01*
D02*
G37*
G36*
X639864Y901962D02*
X616784D01*
Y878882D01*
X620719D01*
Y840797D01*
X509088D01*
X507120Y840538D01*
X506203Y840158D01*
X505285Y839778D01*
X503710Y838570D01*
X460204Y795064D01*
X458996Y793488D01*
X458459Y792192D01*
X458236Y791654D01*
X457977Y789686D01*
Y758481D01*
X456375Y756394D01*
X455313Y753829D01*
X454951Y751078D01*
Y735838D01*
X455313Y733086D01*
X456375Y730523D01*
X457977Y728435D01*
Y720446D01*
X453854Y716324D01*
X452646Y714749D01*
X452109Y713452D01*
X451886Y712914D01*
X451627Y710946D01*
Y675052D01*
X450357Y673398D01*
X449333Y670926D01*
X448984Y668274D01*
X449333Y665622D01*
X450357Y663150D01*
X451627Y661496D01*
Y633730D01*
Y608178D01*
X439122Y595674D01*
X437914Y594099D01*
X437377Y592802D01*
X437154Y592264D01*
X436895Y590296D01*
Y573958D01*
X436167Y573009D01*
X435206Y570688D01*
X434878Y568198D01*
X435206Y565708D01*
X436167Y563387D01*
X437696Y561394D01*
X439689Y559865D01*
X442010Y558904D01*
X444500Y558576D01*
X446990Y558904D01*
X449311Y559865D01*
X451304Y561394D01*
X452833Y563387D01*
X453794Y565708D01*
X454122Y568198D01*
X453794Y570688D01*
X452833Y573009D01*
X452105Y573958D01*
Y587146D01*
X464610Y599650D01*
X465818Y601226D01*
X466355Y602522D01*
X466578Y603060D01*
X466837Y605028D01*
Y613710D01*
X468010Y614196D01*
X494299Y587908D01*
Y504264D01*
X493674Y503784D01*
X491824Y501374D01*
X490661Y498567D01*
X490264Y495554D01*
X490661Y492542D01*
X491824Y489734D01*
X493674Y487324D01*
X496084Y485474D01*
X498891Y484311D01*
X501904Y483914D01*
X504916Y484311D01*
X507724Y485474D01*
X510134Y487324D01*
X511984Y489734D01*
X513147Y492542D01*
X513544Y495554D01*
X513147Y498567D01*
X511984Y501374D01*
X510134Y503784D01*
X509509Y504264D01*
Y591058D01*
X509250Y593026D01*
X509027Y593564D01*
X508490Y594860D01*
X507282Y596436D01*
X466837Y636880D01*
Y661496D01*
X468107Y663150D01*
X469131Y665622D01*
X469480Y668274D01*
X469131Y670926D01*
X468107Y673398D01*
X466837Y675052D01*
Y707796D01*
X470960Y711918D01*
X472168Y713493D01*
X472548Y714411D01*
X472928Y715328D01*
X473187Y717296D01*
Y728435D01*
X474789Y730523D01*
X475851Y733086D01*
X476213Y735838D01*
Y751078D01*
X475851Y753829D01*
X474789Y756394D01*
X473187Y758481D01*
Y786536D01*
X512238Y825587D01*
X625174D01*
X706643Y744118D01*
Y657019D01*
X705373Y655364D01*
X704350Y652892D01*
X704000Y650240D01*
Y645160D01*
X704350Y642508D01*
X705373Y640036D01*
X706389Y638713D01*
Y554580D01*
X705373Y553256D01*
X704350Y550784D01*
X704000Y548132D01*
Y543052D01*
X704350Y540400D01*
X705373Y537928D01*
X707002Y535806D01*
X709124Y534177D01*
X711596Y533153D01*
X714248Y532804D01*
X716900Y533153D01*
X719372Y534177D01*
X721494Y535806D01*
X723123Y537928D01*
X724146Y540400D01*
X724496Y543052D01*
Y548132D01*
X724146Y550784D01*
X723123Y553256D01*
X721599Y555242D01*
Y638050D01*
X723123Y640036D01*
X724146Y642508D01*
X724496Y645160D01*
Y650240D01*
X724146Y652892D01*
X723123Y655364D01*
X721853Y657019D01*
Y747268D01*
X721594Y749236D01*
X721149Y750311D01*
X720834Y751070D01*
X719626Y752646D01*
X635929Y836342D01*
Y878882D01*
X639864D01*
Y901962D01*
D02*
G37*
%LPD*%
D10*
X414782Y743458D02*
D03*
X490982D02*
D03*
X465582D02*
D03*
X440182D02*
D03*
X516382D02*
D03*
D11*
X541782D02*
D03*
D12*
X386972Y587626D02*
X406400Y568198D01*
X442468Y723594D02*
Y741172D01*
X424688Y705814D02*
X442468Y723594D01*
X444500Y568198D02*
Y590296D01*
X459232Y605028D01*
Y633730D01*
X395732Y506730D02*
X425450Y536448D01*
Y606806D01*
X395732Y350012D02*
Y506730D01*
X552196Y367792D02*
Y400824D01*
X534416Y350012D02*
X552196Y367792D01*
X496570Y350012D02*
X534416D01*
X765048Y523748D02*
X797560Y491236D01*
Y373126D02*
Y491236D01*
X749300Y324866D02*
X797560Y373126D01*
X477774Y324866D02*
X749300D01*
X425704Y376936D02*
X477774Y324866D01*
X561340Y463042D02*
Y500126D01*
X526796Y428498D02*
X561340Y463042D01*
X526796Y400824D02*
Y428498D01*
X653724Y890422D02*
Y906852D01*
X638556Y922020D02*
X653724Y906852D01*
X563626Y922020D02*
X638556D01*
X440182Y798576D02*
X563626Y922020D01*
X440182Y743458D02*
Y798576D01*
X509088Y833192D02*
X628324D01*
X465582Y789686D02*
X509088Y833192D01*
X465582Y743458D02*
Y789686D01*
X459232Y633730D02*
Y668274D01*
Y633730D02*
X501904Y591058D01*
Y495554D02*
Y591058D01*
X465582Y717296D02*
Y743458D01*
X459232Y710946D02*
X465582Y717296D01*
X459232Y668274D02*
Y710946D01*
X501396Y400824D02*
Y448818D01*
X533654Y481076D01*
Y642366D01*
X490982Y685038D02*
X533654Y642366D01*
X490982Y685038D02*
Y743458D01*
X516382Y712724D02*
X560832Y668274D01*
X516382Y712724D02*
Y743458D01*
X560832Y602234D02*
Y668274D01*
X719328Y400570D02*
Y481584D01*
X688848Y512064D02*
X719328Y481584D01*
X688848Y512064D02*
Y645414D01*
X643128Y400570D02*
Y453898D01*
X612648Y484378D02*
X643128Y453898D01*
X612648Y484378D02*
Y545592D01*
X764794Y547624D02*
Y747522D01*
X765048Y523748D02*
Y545592D01*
X425704Y376936D02*
Y495554D01*
X475996Y400824D02*
Y495046D01*
X451104Y401332D02*
Y495553D01*
X714248Y647700D02*
Y747268D01*
X628324Y833192D02*
X714248Y747268D01*
X628324Y833192D02*
Y890422D01*
X739648Y511810D02*
Y545592D01*
Y511810D02*
X774192Y477266D01*
Y381762D02*
Y477266D01*
X755904Y363474D02*
X774192Y381762D01*
X680720Y363474D02*
X755904D01*
X668528Y375666D02*
X680720Y363474D01*
X668528Y375666D02*
Y400570D01*
X744982Y400824D02*
Y471170D01*
X617728Y400570D02*
Y447548D01*
X590296Y474980D02*
X617728Y447548D01*
X590296Y474980D02*
Y589026D01*
X612648Y611378D01*
Y647700D01*
X657646Y471170D02*
X668274D01*
X637794Y491022D02*
X657646Y471170D01*
X637794Y491022D02*
Y645414D01*
X713994Y547624D02*
Y645414D01*
X663448Y507238D02*
Y546100D01*
Y507238D02*
X693928Y476758D01*
X663448Y546100D02*
Y645414D01*
X693928Y400570D02*
Y476758D01*
X679124Y833192D02*
X764794Y747522D01*
X739394Y547624D02*
Y645414D01*
X679124Y833192D02*
Y890422D01*
X331595Y587626D02*
X386972D01*
X331087Y707768D02*
X424688D01*
D13*
X197698Y697570D02*
X208405Y708277D01*
X131442Y697570D02*
X197698D01*
X198461Y597570D02*
X208405Y587626D01*
X131442Y597570D02*
X198461D01*
X131697Y647317D02*
X350644D01*
D14*
X668274Y471170D02*
D03*
X744982D02*
D03*
X560832Y668274D02*
D03*
X459232D02*
D03*
X561340Y601726D02*
D03*
Y500126D02*
D03*
D15*
X663448Y545592D02*
D03*
X638048D02*
D03*
X612648D02*
D03*
X765048D02*
D03*
X739648D02*
D03*
X688848D02*
D03*
X714248D02*
D03*
X663448Y647700D02*
D03*
X638048D02*
D03*
X612648D02*
D03*
X765048D02*
D03*
X739648D02*
D03*
X688848D02*
D03*
X714248D02*
D03*
D16*
X744728Y400570D02*
D03*
X577596Y400824D02*
D03*
D17*
X719328Y400570D02*
D03*
X693928D02*
D03*
X668528D02*
D03*
X643128D02*
D03*
X617728D02*
D03*
X552196Y400824D02*
D03*
X526796D02*
D03*
X501396D02*
D03*
X475996D02*
D03*
X450596D02*
D03*
X679124Y890422D02*
D03*
X653724D02*
D03*
X501904Y495554D02*
D03*
X476504D02*
D03*
X451104Y495553D02*
D03*
X425704Y495554D02*
D03*
D18*
X628324Y890422D02*
D03*
D19*
X424688Y610414D02*
D03*
D20*
Y705814D02*
D03*
D21*
X496570Y350012D02*
D03*
X394970D02*
D03*
X331595Y587626D02*
D03*
X208405D02*
D03*
X350644Y647317D02*
D03*
X208405Y708277D02*
D03*
D22*
X331087Y707768D02*
D03*
D23*
X406400Y568198D02*
D03*
X444500D02*
D03*
X425450Y584708D02*
D03*
D24*
X131442Y697570D02*
D03*
Y647570D02*
D03*
Y597570D02*
D03*
M02*
